<svg xmlns="http://www.w3.org/2000/svg" version="1.0" viewBox="0 0 1024 1024">
    <style>
        path { fill: #000000; }
        @media (prefers-color-scheme: dark) {
            path { fill: #ffffff; }
        }
    </style>
    <path d="M306.9 295.2c-.7 1.2-3.1 7.4-5.4 13.7-2.3 6.4-9.9 26.9-16.8 45.6S267.2 402.2 261 419c-13.9 38-25.5 69.4-40.5 110-15.3 41.3-46.9 127.7-55.1 150.5-3.6 9.9-7.1 19.7-7.9 21.8-.8 2-1.5 4.2-1.5 4.7 0 .6 15.5 1 42.8 1h42.8l10.4-29.3c5.7-16 11.8-33 13.6-37.7l3.2-8.5 10.2-1.2c37.6-4.4 96.4-21.6 129.4-37.9 3.7-1.9 7.1-3.4 7.5-3.4s9.5 26.5 20.2 59l19.4 59h42.8c23.5 0 42.7-.4 42.7-.9 0-.4-8.1-24.9-18.1-54.2-9.9-29.4-31.4-92.8-47.6-140.9-42.6-126.2-59.5-175.9-67.2-198l-6.7-19.5-46.7-.3-46.6-.2zm86.5 215c-.9 1.4-29.6 15.5-41.8 20.5-14.9 6.1-31.9 11.9-44.1 14.8-14.4 3.6-13.9 3.8-10.9-4.3 3.9-10.3 43.8-122.5 53.7-150.7l2-5.9 20.8 62.3c11.5 34.3 20.6 62.8 20.3 63.3M555 500v207h72.8c44.1 0 77.2-.4 83.8-1.1 59.3-5.8 108.1-35.8 142-87.4 22.8-34.6 33.9-70.2 35.1-112.2.6-20.5-.5-34.5-4.3-52.3-18.7-88.1-91.1-151.5-182.9-160-6.2-.6-40.7-1-78.7-1H555zm128-129c36.4 2.1 63.3 12.6 85.9 33.5 32.8 30.5 46.6 82.6 35 132.5-2.7 11.9-9.5 28.1-15.9 38.5-6.4 10.1-20.2 25.3-29.8 32.5-8.9 6.7-25.6 15.2-36.2 18.4-16.2 4.9-23.8 5.6-57.6 5.6H633V370h17.3c9.4 0 24.2.5 32.7 1"/>
</svg>
